<svg id="Capa_1" enable-background="new 0 0 512 512" height="512" viewBox="0 0 512 512" width="512" xmlns="http://www.w3.org/2000/svg"><g><path d="m98.712 342.497h111.583v30h-111.583z" fill="#4d4389" transform="matrix(.707 -.707 .707 .707 -207.535 213.959)"/><path d="m104.569 339.549-45.255 45.255 21.778 45.966 46.104 21.916 45.255-45.255z" fill="#9996ff"/><circle cx="320" cy="192" fill="#f0f7ff" r="192"/><path d="m512 192c0 106.04-85.96 192-192 192v-384c106.04 0 192 85.96 192 192z" fill="#d7e9fc"/><path d="m14.059 430.059c-18.745 18.745-18.745 49.137 0 67.882 18.745 18.745 49.137 18.745 67.882 0l45.255-45.255-67.882-67.882z" fill="#4d4389"/><path d="m451.58 192-131.58 75.99-65.79 37.99c-39.33-22.75-65.79-65.28-65.79-113.98 0 0 65.79-113.97 65.78-113.97h.01c19.36-11.2 41.82-17.61 65.79-17.61 72.67 0 131.58 58.91 131.58 131.58z" fill="#00b3ff"/><path d="m451.58 192-131.58 75.99v-207.57c72.67 0 131.58 58.91 131.58 131.58z" fill="#3a80e8"/><path d="m320 159.11c.085 17.517-14.425 32.733-32.89 32.89h-98.69c0-48.7 26.46-91.22 65.78-113.97h.01v15.29c0 18.16 14.73 32.89 32.9 32.89 17.523-.082 32.734 14.424 32.89 32.9z" fill="#bde760"/><path d="m451.58 192c0 72.67-58.91 131.58-131.58 131.58-23.97 0-46.44-6.41-65.79-17.6v-15.3c0-18.16 14.73-32.89 32.9-32.89h32.89c18.17 0 32.89-14.73 32.89-32.9-.08-17.52 14.42-32.73 32.9-32.89z" fill="#bde760"/><path d="m451.58 192c0 72.67-58.91 131.58-131.58 131.58v-65.79c18.17 0 32.89-14.73 32.89-32.9-.08-17.52 14.42-32.73 32.9-32.89z" fill="#00d880"/></g></svg>